grf
version=1
nRows=6
nColumns=37
inDegrees=no
endheader
time	ground_force_1_vx	ground_force_1_vy	ground_force_1_vz	ground_force_1_px	ground_force_1_py	ground_force_1_pz	ground_moment_1_mx	ground_moment_1_my	ground_moment_1_mz	ground_force_2_vx	ground_force_2_vy	ground_force_2_vz	ground_force_2_px	ground_force_2_py	ground_force_2_pz	ground_moment_2_mx	ground_moment_2_my	ground_moment_2_mz	ground_force_3_vx	ground_force_3_vy	ground_force_3_vz	ground_force_3_px	ground_force_3_py	ground_force_3_pz	ground_moment_3_mx	ground_moment_3_my	ground_moment_3_mz	ground_force_4_vx	ground_force_4_vy	ground_force_4_vz	ground_force_4_px	ground_force_4_py	ground_force_4_pz	ground_moment_4_mx	ground_moment_4_my	ground_moment_4_mz
      0.00000000	      0.00000000	     -0.00000000	      0.00000000	      0.00000000	      0.00000000	      0.00000000	      0.00000000	      0.00000000	      0.00000000	      1.23185050	     47.76795197	   -391.24392700	   -289.49003879	  -1095.70843751	      0.00000000	      0.00000000	      0.00000000	   4128.75177654	     -4.34993856	    -45.60302696	   -393.48162842	   -287.02901462	   -713.57568043	      0.00000000	     -0.00000000	     -0.00000000	  -5922.26951751	      0.00000000	     -0.00000000	      0.00000000	      0.00000000	      0.00000000	      0.00000000	      0.00000000	      0.00000000	      0.00000000
      0.01000000	      0.00000000	     -0.00000000	      0.00000000	      0.00000000	      0.00000000	      0.00000000	      0.00000000	      0.00000000	      0.00000000	      1.13141918	     47.77122879	   -392.48443604	   -288.85811462	  -1096.64178485	      0.00000000	      0.00000000	      0.00000000	   4283.08280156	     -4.76750723	    -45.42571217	   -392.80661011	   -286.27184882	   -713.49209842	      0.00000000	      0.00000000	     -0.00000000	  -5833.40477927	      0.00000000	     -0.00000000	      0.00000000	      0.00000000	      0.00000000	      0.00000000	      0.00000000	      0.00000000	      0.00000000
      0.02000000	      0.00000000	     -0.00000000	      0.00000000	      0.00000000	      0.00000000	      0.00000000	      0.00000000	      0.00000000	      0.00000000	      0.77998608	     47.68718719	   -389.20428467	   -287.23776836	  -1096.16140406	      0.00000000	      0.00000000	      0.00000000	   4065.94613717	     -4.74986761	    -45.59925419	   -393.74316406	   -285.74866076	   -713.26963142	      0.00000000	      0.00000000	     -0.00000000	  -5738.27231672	      0.00000000	     -0.00000000	      0.00000000	      0.00000000	      0.00000000	      0.00000000	      0.00000000	      0.00000000	      0.00000000
      0.03000000	      0.00000000	     -0.00000000	      0.00000000	      0.00000000	      0.00000000	      0.00000000	      0.00000000	      0.00000000	      0.00000000	      0.42321697	     48.03915787	   -389.11389160	   -288.00237920	  -1095.78730564	      0.00000000	      0.00000000	      0.00000000	   4197.54683328	     -5.14522949	    -45.39734605	   -391.67645264	   -285.47177781	   -714.32361644	      0.00000000	      0.00000000	     -0.00000000	  -5730.35052832	      0.00000000	     -0.00000000	      0.00000000	      0.00000000	      0.00000000	      0.00000000	      0.00000000	      0.00000000	      0.00000000
      0.04000000	      0.00000000	     -0.00000000	      0.00000000	      0.00000000	      0.00000000	      0.00000000	      0.00000000	      0.00000000	      0.00000000	      0.42142642	     47.77204132	   -389.73037720	   -287.76017794	  -1096.91945600	      0.00000000	      0.00000000	      0.00000000	   4093.51903012	     -5.16590993	    -45.50625947	   -392.53567505	   -285.61625002	   -713.30843332	      0.00000000	      0.00000000	     -0.00000000	  -5691.02344871	      0.00000000	     -0.00000000	      0.00000000	      0.00000000	      0.00000000	      0.00000000	      0.00000000	      0.00000000	      0.00000000
      0.05000000	      0.00000000	     -0.00000000	      0.00000000	      0.00000000	      0.00000000	      0.00000000	      0.00000000	      0.00000000	      0.00000000	      0.73478949	     48.01860809	   -388.50427246	   -288.09256253	  -1096.21763059	      0.00000000	      0.00000000	      0.00000000	   4084.11105674	     -5.05651873	    -45.59650377	   -392.96673584	   -284.58312738	   -713.11152885	      0.00000000	     -0.00000000	     -0.00000000	  -5634.53557046	      0.00000000	     -0.00000000	      0.00000000	      0.00000000	      0.00000000	      0.00000000	      0.00000000	      0.00000000	      0.00000000
